<?xml version="1.0" encoding="utf-8"?>
<!-- Generator: Adobe Illustrator 15.0.0, SVG Export Plug-In . SVG Version: 6.00 Build 0)  -->
<!DOCTYPE svg PUBLIC "-//W3C//DTD SVG 1.1//EN" "http://www.w3.org/Graphics/SVG/1.1/DTD/svg11.dtd">
<svg version="1.1" id="图层_1" xmlns="http://www.w3.org/2000/svg" xmlns:xlink="http://www.w3.org/1999/xlink" x="0px" y="0px"
	 width="113px" height="58px" viewBox="0 0 113 58" enable-background="new 0 0 113 58" xml:space="preserve">
<g>
	<path fill="#C71919" d="M79.018,10.621L66.063,9.97c-0.651,0-1.141-0.163-1.548-0.488c-0.081,0.244-0.081,0.488-0.081,0.814
		c-1.874-0.163-2.688-0.651-2.444-1.384c-3.666,0-6.028,0.163-7.006,0.57c-0.245,0.081-0.489,0.244-0.57,0.407
		c0.326,0.163,0.407,0.407,0.244,0.651c-0.163,0.163-0.651,0.651-1.548,1.384c0.082-0.407,0.245-0.814,0.489-1.221h-0.081
		c-0.163,0.407-0.408,0.57-0.815,0.488c-0.407-0.081-0.896-0.244-1.466-0.651l-4.97,0.895c-3.503,0.57-5.621,0.814-6.517,0.814
		l-13.768-0.977c-2.688,0-5.051,0.244-7.169,0.814c-3.177,0.814-5.051,2.198-5.622,4.07c-0.733,2.523-1.059,4.396-1.141,5.616
		l-0.896,11.396l0.733,9.768h90.428c0.082-0.244,0.163-0.406,0.326-0.569l-0.081-2.687c0.57-5.453,0.814-8.547,0.814-9.279
		c0-11.803-1.548-18.478-4.726-19.862C96.288,9.481,89.689,9.481,79.018,10.621L79.018,10.621z"/>
	<path d="M66.063,9.97l12.954,0.651C89.689,9.481,96.288,9.481,98.65,10.54c3.178,1.384,4.726,8.059,4.726,19.862
		c0,0.732-0.244,3.826-0.814,9.279l0.081,2.687c-0.163,0.163-0.244,0.325-0.326,0.569c-0.244,0.407-0.325,0.814-0.325,1.222
		c0,0.244,0.163,0.732,0.488,1.465c0.407,0.896,0.896,1.384,1.385,1.384c1.386,0,2.118-1.221,2.118-3.581c0-0.163,0-0.326,0-0.489
		h0.163c0.082-1.709,0.163-3.825,0.407-6.349l0.408-6.023c0-8.059-0.733-13.92-2.118-17.501c-1.304-3.419-3.585-5.536-6.925-6.35
		C95.555,6.063,91.4,5.981,85.29,6.469c-6.599,0.57-11.813,0.896-15.805,0.977c-1.141-0.896-4.236-1.14-9.368-0.896
		c-3.178-0.244-5.377,0.082-6.762,1.058c-0.245,0.163-0.407,0.326-0.57,0.489c-0.733-0.245-2.037-0.407-3.829-0.407
		c-0.57,0-2.281,0.163-5.295,0.57c-0.814,0.082-1.71,0.244-2.607,0.326c-1.874,0-4.644-0.082-8.472-0.326
		c-2.526-0.163-5.458-0.326-8.799-0.57c-5.051-0.326-8.473-0.082-10.346,0.651c-2.525,0.977-4.236,3.256-5.132,6.837
		C7.407,18.68,7,24.703,7,33.088c0,1.384,0.082,4.721,0.245,9.85h0.163l0.489,2.278c0.245,0.651,0.57,1.222,0.978,1.629
		c0.57,1.058,1.466,1.546,2.607,1.546c0.326,0,0.489,0,0.489-0.081c-0.082-0.081-0.082-0.163,0-0.163l0.489-3.581
		c0-0.733-0.245-1.222-0.733-1.628h0.163l-0.733-9.769l0.896-11.396c0.081-1.221,0.407-3.093,1.14-5.617
		c0.57-1.872,2.444-3.256,5.622-4.07c2.118-0.569,4.48-0.814,7.169-0.814l13.768,0.977c0.896,0,3.014-0.244,6.518-0.814l4.969-0.896
		c0.57,0.407,1.059,0.57,1.466,0.651c0.408,0.081,0.652-0.082,0.815-0.489H53.6c-0.245,0.407-0.408,0.814-0.489,1.221
		c0.896-0.732,1.385-1.221,1.548-1.384c0.163-0.244,0.082-0.488-0.245-0.651c0.082-0.163,0.326-0.326,0.57-0.407
		c0.978-0.407,3.34-0.57,7.006-0.57c-0.244,0.732,0.57,1.221,2.444,1.384c0-0.326,0-0.57,0.082-0.814
		C64.924,9.807,65.412,9.97,66.063,9.97L66.063,9.97z"/>
	<path fill="#C71919" d="M41.053,8.586c0.896-0.082,1.792-0.244,2.607-0.326h-11.08C36.41,8.504,39.18,8.586,41.053,8.586
		L41.053,8.586z"/>
	<path fill="#FFFFFF" d="M50.259,40.495h1.303c-0.163-0.326-0.407-0.488-0.651-0.488C50.748,40.007,50.503,40.169,50.259,40.495
		L50.259,40.495z"/>
	<path fill="#FFFFFF" d="M51.563,40.495h-1.303c-0.245,0.244-0.489,0.488-0.815,0.896c0-0.407-0.082-0.732-0.163-0.896H48.06
		c-0.082,0.244-0.245,0.407-0.326,0.488c-0.081-0.244-0.244-0.407-0.326-0.488h-1.059c-0.082,0.081-0.163,0.325-0.244,0.732
		c0,0.081,0,0.163,0,0.244c-0.082-0.081-0.082-0.244-0.163-0.325c-0.082-0.244-0.245-0.488-0.407-0.651H39.75v1.058l-0.082-0.081
		c0-0.407,0-0.732-0.082-0.977h-2.525c-0.652,0.325-1.141,0.651-1.385,0.896v-0.082c-0.163-0.325-0.326-0.569-0.57-0.813h-4.888
		c-0.082,0.244-0.082,0.488-0.082,0.732c-0.082-0.163-0.245-0.325-0.407-0.569c-0.326,0.244-0.652,0.65-0.896,1.221
		c-0.244,0.569-0.407,1.058-0.407,1.465c0,0.082,0,0.163,0.082,0.407h44.644c-0.081-0.081-0.081-0.163-0.081-0.244
		c0.081,0.081,0.081,0.163,0.163,0.244h4.48c-0.163-0.569-0.326-1.14-0.57-1.709c-0.244-0.651-0.407-1.14-0.57-1.547h-1.467
		c-0.081,0.325-0.163,0.732-0.163,1.14c0.082,0.569,0.082,1.058,0.163,1.465c-0.081-0.163-0.081-0.325-0.163-0.569
		c-0.325-0.814-0.488-1.303-0.488-1.466c0.081-0.244,0.081-0.406,0.081-0.488c0-0.081,0-0.081,0-0.081h-1.385
		c-0.326,0.407-0.488,0.896-0.488,1.465c0.081,0.326,0.081,0.651,0.162,0.978c-0.325-1.059-0.488-1.71-0.488-1.954
		c0.081-0.244,0.081-0.407,0-0.488h-1.304c-0.081,0-0.081,0-0.081,0.081c-0.245,0.488-0.408,0.896-0.408,1.303
		c0,0.081,0,0.163,0,0.244c-0.244-0.57-0.488-0.977-0.896-1.384c-0.163-0.163-0.326-0.244-0.407-0.244
		c-0.082-0.081-0.163-0.081-0.245,0c-0.244,0.081-0.407,0.244-0.488,0.651c-0.244-0.326-0.407-0.57-0.651-0.651h-0.979
		c-0.081,0-0.081,0.081-0.162,0.163c-0.163,0.244-0.245,0.325-0.326,0.325l-0.896,0.081c-0.081-0.081-0.081-0.162-0.163-0.325
		c-0.081-0.081-0.244-0.163-0.57-0.163l-1.14-0.081c-0.245,0-0.408,0.081-0.489,0.244c-0.163,0.244-0.244,0.325-0.326,0.407
		c0-0.244,0-0.488,0-0.651h-6.599c-0.082,0-0.082,0-0.082,0.081c-0.082-0.081-0.082-0.081-0.082-0.081h-2.688
		c-0.081,0.081-0.081,0.081-0.081,0.163c-0.082,0.488-0.163,0.732-0.245,0.732c0.245-0.57,0-0.896-0.652-0.896l-0.733,0.488
		C51.644,40.82,51.644,40.658,51.563,40.495L51.563,40.495z M30.3,43.1c-0.082-0.244-0.082-0.407-0.082-0.651
		c0.082-0.162,0.082-0.325,0.163-0.406C30.3,42.286,30.3,42.692,30.3,43.1L30.3,43.1z"/>
	<path fill="#FFFFFF" d="M54.007,40.088c-0.326,0-0.57,0.163-0.652,0.407h2.688c-0.163-0.163-0.245-0.244-0.326-0.326
		c-0.081-0.081-0.244-0.081-0.489-0.081c-0.082,0-0.326,0.081-0.57,0.326C54.577,40.169,54.333,40.088,54.007,40.088L54.007,40.088z
		"/>
	<path fill="#FFFFFF" d="M46.349,40.495h1.059c-0.163-0.163-0.326-0.244-0.57-0.244C46.593,40.251,46.43,40.332,46.349,40.495
		L46.349,40.495z"/>
	<path fill="#FFFFFF" d="M48.06,40.414v0.081h1.222c-0.082-0.244-0.326-0.407-0.57-0.407C48.385,40.088,48.141,40.169,48.06,40.414
		L48.06,40.414z"/>
	<path fill="#FFFFFF" d="M62.805,40.495c-0.081-0.488-0.325-0.732-0.651-0.732c-0.081,0-0.244,0.081-0.57,0.325
		c0-0.488-0.244-0.732-0.651-0.732c-0.244,0-0.407,0.081-0.57,0.244c-0.082,0.163-0.163,0.244-0.244,0.244
		c-0.489,0-0.815,0.081-1.06,0.244c-0.244-0.244-0.488-0.407-0.57-0.407c-0.326,0-0.57,0.082-0.651,0.244
		c-0.082,0.244-0.082,0.326-0.163,0.407c-0.326-0.244-0.57-0.407-0.733-0.407c-0.407,0-0.652,0.163-0.733,0.57H62.805L62.805,40.495
		z"/>
	<path fill="#FFFFFF" d="M73.151,40.495h1.385c-0.081-0.244-0.244-0.488-0.488-0.814C73.641,39.925,73.396,40.169,73.151,40.495
		L73.151,40.495z"/>
	<path fill="#FFFFFF" d="M71.033,40.495h1.304c0-0.244-0.163-0.488-0.489-0.896C71.604,39.763,71.277,40.088,71.033,40.495
		L71.033,40.495z"/>
	<path fill="#FFFFFF" d="M66.879,40.495h0.978c-0.163-0.081-0.326-0.163-0.57-0.163C67.123,40.332,66.96,40.414,66.879,40.495
		L66.879,40.495z"/>
	<path fill="#FFFFFF" d="M76.573,40.495c-0.244-0.651-0.489-1.059-0.733-1.14c-0.326,0.325-0.57,0.732-0.733,1.14H76.573
		L76.573,40.495z"/>
	<path fill="#FFFFFF" d="M10.992,37.239c-0.651-0.163-0.978,0.162-0.978,0.977c0,0.081,0.163,0.813,0.407,2.279h3.992
		c-0.245-1.059-0.733-1.547-1.466-1.547c-0.652,0-0.978,0-0.978-0.081C11.888,37.972,11.562,37.401,10.992,37.239L10.992,37.239z"/>
	<path fill="#FFFFFF" d="M17.346,40.902c-0.733-0.244-1.629-0.163-2.77,0.162c-0.082-0.244-0.082-0.406-0.163-0.569h-3.992
		c0.082,0.488,0.163,1.058,0.245,1.709c0.163,0.57,0.326,1.14,0.57,1.547h17.108C28.182,43.344,28.1,43.182,28.1,43.1
		c0.163-0.896,0.163-1.547,0.082-1.953c-0.082-0.082-0.163-0.082-0.245-0.082c-0.082-0.244-0.163-0.406-0.244-0.569h-4.236
		c-0.163,0.244-0.245,0.488-0.326,0.732c-0.733-0.163-1.222,0.081-1.466,0.814c-0.082-0.489-0.244-0.896-0.489-1.14
		c-0.57,0.162-0.896,0.65-1.141,1.465c-0.082-0.732-0.244-1.221-0.407-1.547c-0.489,0.244-0.815,0.57-0.978,1.14
		c-0.082-0.244-0.245-0.488-0.408-0.569c-0.081-0.407-0.326-0.651-0.651-0.896C17.509,40.576,17.428,40.739,17.346,40.902
		L17.346,40.902z"/>
	<path fill="#FFFFFF" d="M23.457,40.495h4.236c-0.408-0.651-1.059-0.977-2.118-1.059C24.516,39.355,23.864,39.763,23.457,40.495
		L23.457,40.495z"/>
	<path fill="#FFFFFF" d="M39.75,40.007v0.488h5.784c-0.407-0.651-0.978-0.977-1.711-0.977C41.95,39.519,40.646,39.681,39.75,40.007
		L39.75,40.007z"/>
	<path fill="#FFFFFF" d="M39.587,40.495v-0.081c-0.082-0.489-0.489-0.733-1.141-0.733l-1.059,0.57
		c-0.082,0.081-0.244,0.163-0.326,0.244H39.587L39.587,40.495z"/>
	<path fill="#FFFFFF" d="M30.218,40.495h4.888c-0.978-1.303-2.037-1.872-3.096-1.71C31.033,38.948,30.462,39.519,30.218,40.495
		L30.218,40.495z"/>
	<path fill="#FFFFFF" d="M28.507,43.751c0.082,0.244,0.082,0.488,0.163,0.896c-0.163-0.407-0.245-0.651-0.326-0.896H11.236
		c0.733,1.547,1.792,2.279,3.014,2.279c0.163,0,0.326,0,0.489-0.081c0.408,0.569,0.978,0.813,1.711,0.813
		c0.245,0,0.489,0,0.733-0.081c0.244,0.163,0.489,0.244,0.733,0.244c0.326,0,0.57-0.081,0.652-0.163l0.163-0.163
		c0.244,0.244,0.489,0.326,0.814,0.326c0.245,0,0.407-0.163,0.652-0.407l0.163-0.163c0.244,0.244,0.652,0.326,1.222,0.326
		c0.245,0,0.489,0,0.652,0c0.082,0,0.245,0,0.407,0c0.326,0,0.489,0,0.489-0.082c0.081-0.081,0.081-0.081,0.163-0.162
		c0.245,0.244,0.57,0.488,0.978,0.569c0.326-0.081,0.652-0.081,1.059-0.081c0.082-0.081,0.082-0.081,0.082-0.163
		c0.082-0.081,0.082-0.244,0.082-0.488c0.163,0.244,0.326,0.488,0.489,0.651c0.407-0.081,0.896-0.081,1.385-0.081l0.081-0.082
		l0.082,0.082c0.57-0.082,1.141-0.082,1.711-0.082c0-0.162,0-0.407,0-0.732c0.245,0.325,0.652,0.57,1.141,0.651
		c0.733-0.081,1.466-0.081,2.2-0.163v-0.081l0.082-0.407c-0.082-0.244-0.082-0.488-0.082-0.732c0.57,0.651,0.978,0.977,1.222,0.977
		c0.326,0,0.57-0.163,0.652-0.488l0.163-0.651c0.57,0.407,1.141,0.814,1.629,1.059c0.733-0.082,1.466-0.082,2.281-0.163
		c0.082-0.081,0.082-0.244,0.082-0.325c0.082,0.081,0.163,0.162,0.245,0.244c1.466-0.082,2.933-0.244,4.48-0.407
		c0.326-0.081,0.652-0.081,0.896-0.081c0.407-0.244,0.733-0.407,1.059-0.651c0.081,0.081,0.163,0.163,0.326,0.244
		c0.244,0.163,0.407,0.244,0.57,0.325c0.244,0.082,0.407,0.163,0.57,0.163c0.082,0,0.163,0,0.326-0.081
		c0.082-0.082,0.082-0.163,0.163-0.244c0.082,0.081,0.163,0.162,0.244,0.244c0.245,0.162,0.489,0.244,0.815,0.244
		c0.082,0,0.244-0.082,0.407-0.163c0.082-0.081,0.163-0.244,0.245-0.325c0.081,0.162,0.244,0.325,0.326,0.406c0,0,0,0,0.082,0.082
		c0.163,0.162,0.407,0.244,0.652,0.244c0.163,0,0.326-0.082,0.489-0.326c0.082-0.081,0.082-0.162,0.163-0.244
		c0.163-0.407,0.245-0.732,0.245-0.977h0.082c0.082,0.407,0.244,0.651,0.326,0.896c0.082,0.163,0.163,0.325,0.245,0.407
		c0.082,0.162,0.244,0.244,0.489,0.244c0.244,0,0.407-0.082,0.489-0.163c0-0.081,0-0.081,0-0.163h0.407
		c0.245,0,0.407-0.081,0.489-0.162c0.163-0.163,0.245-0.407,0.245-0.814c0.082,0.325,0.082,0.569,0.163,0.814
		c0.082,0.162,0.245,0.325,0.408,0.406c0.082,0.082,0.244,0.082,0.489,0.082c0.163,0,0.326-0.082,0.407-0.163
		s0.082-0.081,0.082-0.163c0.082,0,0.163,0,0.244,0.082c0.082,0.081,0.163,0.162,0.245,0.244c0.082,0.162,0.244,0.244,0.489,0.244
		c0.407,0,0.652-0.244,0.652-0.651c0-0.082,0-0.244,0-0.326c0.082,0.082,0.163,0.244,0.244,0.326
		c0.082,0.081,0.244,0.081,0.407,0.081c0.326,0,0.57-0.081,0.652-0.244c0.081-0.081,0.081-0.163,0.081-0.244
		c0.082-0.163,0.082-0.407,0.082-0.732c0.081,0.244,0.081,0.488,0.162,0.651c0.082,0.081,0.082,0.162,0.163,0.244
		c0.082,0.162,0.245,0.244,0.489,0.244c0.488,0,0.733-0.163,0.733-0.57l0.57,0.163c0.081,0,0.244-0.081,0.488-0.244
		c0.082,0.244,0.326,0.325,0.57,0.325l0.489-0.244c0.162,0.326,0.407,0.489,0.732,0.489c0.082,0,0.245-0.082,0.489-0.326
		c0.081,0,0.163,0.081,0.244,0.163c0.082,0.081,0.245,0.163,0.652,0.163l0.325-0.407l0.082-0.082c0.081,0,0.163,0.082,0.407,0.163
		h0.081c0.082,0,0.082,0,0.163,0c0.082-0.081,0.082-0.081,0.163-0.163c0.081-0.162,0.407-0.244,0.814-0.244
		c0.082,0,0.082,0.082,0.163,0.244c0.081,0.082,0.081,0.082,0.163,0.082c0.081,0.081,0.244,0.081,0.488,0.081l0.652-0.163
		c0.733,0,1.141-0.162,1.385-0.569c0.163,0,0.326,0,0.57,0c1.385,0.163,2.688,0.325,3.992,0.488
		c-0.163-0.407-0.326-0.814-0.407-1.14H28.507L28.507,43.751z"/>
	<path fill="#FFFFFF" d="M77.795,44.321c-0.081-0.163-0.081-0.326-0.081-0.57h-4.48c0.244,0.57,0.57,0.814,1.14,0.814
		c0.326,0,0.57-0.082,0.733-0.163c0.082-0.081,0.163-0.244,0.245-0.326c0-0.081,0-0.081,0-0.162
		c0.244,0.569,0.488,0.977,0.814,1.221c0.407,0.081,0.896,0.081,1.385,0.163v-0.082l0.163-0.244L77.795,44.321L77.795,44.321z"/>
	<path fill="#530B0B" d="M64.923,45.135l-0.488-0.081l-0.326,0.406c-0.407,0-0.57-0.081-0.651-0.162
		c-0.082-0.082-0.163-0.163-0.244-0.163c-0.245,0.244-0.408,0.325-0.489,0.325c-0.326,0-0.57-0.162-0.733-0.488l-0.488,0.244
		c-0.245,0-0.489-0.081-0.57-0.325c-0.245,0.163-0.407,0.244-0.489,0.244l-0.57-0.163c0,0.407-0.244,0.57-0.733,0.57
		c-0.244,0-0.407-0.082-0.488-0.244c-0.163,0-0.326,0-0.489,0.081c-0.081,0.163-0.325,0.244-0.651,0.244
		c-0.163,0-0.326,0-0.407-0.081c-0.082,0-0.163,0-0.245,0c0,0.407-0.244,0.651-0.652,0.651c-0.244,0-0.407-0.082-0.489-0.244
		c-0.082-0.082-0.163-0.163-0.244-0.244c-0.082,0-0.245,0-0.326,0.081s-0.244,0.163-0.407,0.163c-0.244,0-0.407,0-0.489-0.082
		c-0.326,0-0.57,0-0.733,0c-0.244-0.081-0.57-0.081-0.978-0.081c-0.082,0.081-0.244,0.163-0.489,0.163
		c-0.244,0-0.407-0.082-0.489-0.244c-0.326-0.082-0.652-0.082-1.059-0.082c-0.163,0.244-0.326,0.326-0.489,0.326
		c-0.245,0-0.489-0.082-0.652-0.244c-0.082-0.082-0.082-0.082-0.082-0.082l-0.57-0.081c-0.163,0.081-0.326,0.163-0.407,0.163
		c-0.326,0-0.57-0.082-0.814-0.244c-0.163,0-0.326,0-0.408,0c-0.163,0.081-0.244,0.081-0.326,0.081c-0.163,0-0.326-0.081-0.57-0.163
		c-0.57,0-1.222,0-1.955,0.082c-0.245,0-0.57,0-0.896,0.081c-1.548,0.163-3.015,0.325-4.481,0.407c-0.082,0-0.244,0-0.326,0.081
		c-0.815,0.081-1.548,0.081-2.281,0.163c-1.303,0.081-2.525,0.244-3.666,0.325c-0.733,0.081-1.466,0.081-2.2,0.163
		c-0.407,0-0.733,0-1.141,0.081c-0.57,0-1.14,0-1.71,0.081c-0.082,0-0.082,0-0.163,0c-0.489,0-0.978,0-1.385,0.082
		c-0.245,0-0.408,0-0.652,0c-0.407,0-0.733,0-1.059,0.081c-2.2,0.081-4.318,0.081-6.191,0.081c-1.304,0-2.444-0.162-3.503-0.569
		c-0.978-0.407-1.629-0.651-1.874-0.651c-0.57,0-0.978,0.244-1.385,0.651c-0.407,0.407-0.57,0.896-0.57,1.384
		c0,2.36,2.362,3.582,7.169,3.582c11.487,0,20.123-0.57,25.744-1.628c0.896-0.163,1.711-0.326,2.444-0.57
		c2.688,0.244,4.318,0.407,4.97,0.407c0.733,0,1.385,0,2.118-0.082c0.896,0.082,1.711,0.163,2.444,0.163
		c1.711,0,5.458-0.244,11.161-0.813l1.792,0.244c0.407,0.325,0.896,0.488,1.63,0.488c0.325,0,0.57-0.082,0.814-0.244
		c0.244-0.244,0.489-0.326,0.651-0.326c4.807-0.081,8.799-0.081,11.977,0c6.109,0.244,9.287,0.326,9.612,0.326v-0.326
		c3.096-0.244,4.97-0.325,5.622-0.325c2.933,0,4.398,0,4.48,0c0.57-0.081,0.814-0.651,0.814-1.71c0-0.569-0.163-1.058-0.488-1.383
		c-0.408-0.407-0.979-0.651-1.793-0.814s-1.792-0.244-2.933-0.244c-0.081,0-0.407,0-0.814,0.081c-0.407,0-0.896,0-1.467,0.082
		c-0.326,0-0.651,0-1.059,0.081c-0.57,0-1.304,0-2.037,0.081c-0.896,0.082-1.955,0.163-3.177,0.244
		c-1.467,0.082-3.096,0.244-4.889,0.326c-1.466,0-2.933,0-4.48-0.082c-0.978-0.081-1.955-0.081-2.852-0.162
		c-0.244,0-0.407,0-0.651,0c-0.489-0.082-0.978-0.082-1.385-0.163c-0.896-0.081-1.711-0.163-2.607-0.244
		c-1.304-0.163-2.606-0.326-3.992-0.488c-0.244,0-0.407,0-0.57,0c-0.244,0.407-0.651,0.569-1.385,0.569l-0.651,0.163
		c-0.244,0-0.407,0-0.489-0.081c-0.57,0.081-0.896,0.081-1.141,0.081h-0.162c-0.082,0-0.082,0-0.163,0H64.923L64.923,45.135z"/>
	<path fill="#FFFFFF" d="M80.076,39.6c-1.385,0.081-2.118,1.221-2.118,3.582c-0.081,0.895,0,1.628,0.244,2.116
		c0.896,0.081,1.874,0.081,2.852,0.162c0-0.162,0-0.325,0-0.569c-0.733-1.872-1.059-2.931-1.059-3.175
		C80.157,40.82,80.157,40.088,80.076,39.6L80.076,39.6z"/>
	<path fill="#FFFFFF" d="M101.258,38.379c-0.733-0.326-1.304-0.163-1.63,0.488c-0.407-0.407-1.059-0.651-1.873-0.651
		c-0.652,0-1.223,0.163-1.63,0.407c-0.081-0.082-0.244-0.082-0.325-0.082c-1.63-0.081-2.444,0.814-2.444,2.605
		c0.57,2.035,1.385,3.256,2.281,3.744c0.407-0.081,0.733-0.081,1.059-0.081c0.163-0.326,0.326-0.651,0.489-0.896
		c0.326,0.325,0.651,0.569,0.978,0.813c0.407-0.081,0.733-0.081,0.814-0.081c1.141,0,2.118,0.081,2.933,0.244
		c0-0.081,0-0.244,0-0.325C101.909,44.158,101.665,42.123,101.258,38.379L101.258,38.379z"/>
	<path fill="#FFFFFF" d="M92.948,43.914c-0.407-0.488-0.652-0.978-0.652-1.384c0.163-0.732,0.245-1.303,0.245-1.547
		c0.081-0.407-0.326-0.814-1.06-1.221c-1.059,0.325-1.548,1.465-1.548,3.419c0,0.895,0.163,1.546,0.489,2.034
		c1.222-0.081,2.281-0.162,3.177-0.244C93.6,44.728,93.355,44.402,92.948,43.914L92.948,43.914z"/>
	<path fill="#FFFFFF" d="M86.512,42.855c0,0.081,0,0.407,0,1.059c0.163,0.732,0.733,1.058,1.711,1.058c0.326,0,0.57,0,0.733-0.081
		s0.244-0.163,0.326-0.163c0.081,0.082,0.163-0.081,0.163-0.651c-0.57-1.221-0.896-2.116-0.896-2.604
		c0.163-0.488,0.244-0.896,0.244-1.221c0.082-0.57-0.244-0.978-0.814-1.14C87.001,39.192,86.512,40.495,86.512,42.855L86.512,42.855
		z"/>
	<path fill="#FFFFFF" d="M83.661,42.692c-0.163-1.302-0.652-2.523-1.386-3.744c-1.059-1.628-1.548-0.569-1.548,3.256
		c0,0.814,0,1.303,0.082,1.466c0.244,0.813,0.978,1.221,2.199,1.221c0.326,0,0.489-0.081,0.57-0.163l0.082-0.244
		c0.081-0.081,0.081-0.244,0.081-0.325v0.407c0.407,0.244,0.896,0.325,1.385,0.325c0.326,0,0.57-0.081,0.652-0.163
		c0.081-0.081,0.163-0.162,0.244-0.162s0.163-0.244,0.163-0.814c0-0.569-0.082-1.303-0.326-2.279
		c-0.326-1.384-0.733-2.198-1.304-2.604C83.986,39.437,83.661,40.739,83.661,42.692L83.661,42.692z"/>
	<path opacity="0.1" d="M104.924,18.68c-0.57-3.663-2.118-7-4.563-10.175c-3.991-2.442-7.983-3.582-11.976-3.5
		c-4.154,0.163-6.272,1.709-6.436,4.64c-1.06,0-6.925-0.244-17.516-0.651c-3.666-0.081-10.102,0.163-19.308,0.733l-12.301,1.546
		c-8.147,1.058-12.954,1.547-14.501,1.547c-3.177,0-5.051,0.163-5.784,0.488c-0.733,0.407-1.14,1.384-1.14,2.93
		c0,0.082,0.081,0.733,0.244,2.035c0.57,1.221,1.792,1.872,3.829,1.872l3.829-1.14c2.363-0.732,4.97-1.058,7.658-0.814
		c3.666,0.326,9.125,0.163,16.538-0.488c7.006-0.651,10.917-0.977,11.65-0.977c12.464,0,20.449,0.326,23.952,0.977
		c10.835,2.117,16.293,7.245,16.293,15.303c0,0.163-0.081,1.14-0.325,2.931c-0.163,1.547-0.163,2.768-0.082,3.5
		c0.082,0.488,0.326,1.14,0.733,1.872c0.082,0.244,0.244,0.407,0.407,0.651c-0.163,0.407-0.244,0.977-0.325,1.628
		c2.851,0.488,5.784,0.488,8.798-0.081l0.814-0.57l1.141-0.244c0.082-0.406,0.082-0.813,0.163-1.384c0-0.488,0-1.058,0-1.628
		c0-0.162,0-0.325,0-0.407c0-1.058-0.244-4.396-0.733-9.931C105.494,23.645,105.168,20.063,104.924,18.68L104.924,18.68z"/>
</g>
</svg>
